<?xml version="1.0" encoding="utf8" standalone="no"?>
<svg viewBox="0 0 100 120" xmlns="http://www.w3.org/2000/svg">
<defs>
<filter height="1.13927" id="filter4918" width="1.26565" x="-.13283" y="-.06964">
<feGaussianBlur stdDeviation="3.72121"/>
</filter>
</defs>
<path d="m171.375,148.125c-4.82816.00011-9.50784.65636-14.03125,1.96875s-8.96876,3.29698-13.375,5.96875v13.21875c4.54686-3.14054 8.89842-5.51553 13.09375-7.15625s8.17184-2.46865 11.875-2.46875c5.06246.0001 9.11714,1.29697 12.1875,3.875s4.5937,5.95321 4.59375,10.125c-5e-005,2.29695-.58599,4.54695-1.78125,6.75s-3.14067,4.54695-5.8125,7.03125l-6.3125,6.25c-4.21878,4.03131-7.00003,7.57818-8.3125,10.625s-1.96878,6.92192-1.96875,11.65625v10.84375h13.4375v-8.65625c-4e-005-2.43746.07808-4.37496.21875-5.78125s.34371-2.57808.625-3.5625c.37496-1.17183 1.02339-2.38276 1.9375-3.625s2.48433-2.98432 4.6875-5.1875l6.1875-6.03125c4.21869-4.03118 7.15619-7.66399 8.84375-10.875s2.53118-6.59367 2.53125-10.15625c-7e-005-7.45304-2.61725-13.45303-7.84375-18s-12.1563-6.81239-20.78125-6.8125zm-10.25,89v17.875h14.25v-17.875h-14.25z" filter="url(#filter4918)" opacity=".6" transform="matrix(1,0,0,.9,-114.9347,-118.91908)"/>
<path d="m157.75,143.125c-4.82816.00011-9.50784.65636-14.03125,1.96875s-8.96876,3.29698-13.375,5.96875v13.21875c4.54686-3.14054 8.89842-5.51553 13.09375-7.15625s8.17184-2.46865 11.875-2.46875c5.06246.0001 9.11714,1.29697 12.1875,3.875s4.5937,5.95321 4.59375,10.125c-5e-005,2.29695-.58599,4.54695-1.78125,6.75s-3.14067,4.54695-5.8125,7.03125l-6.3125,6.25c-4.21878,4.03131-7.00003,7.57818-8.3125,10.625s-1.96878,6.92192-1.96875,11.65625v10.84375h13.4375v-8.65625c-4e-005-2.43746.07808-4.37496.21875-5.78125s.34371-2.57808.625-3.5625c.37496-1.17183 1.02339-2.38276 1.9375-3.625s2.48433-2.98432 4.6875-5.1875l6.1875-6.03125c4.21869-4.03118 7.15619-7.66399 8.84375-10.875s2.53118-6.59367 2.53125-10.15625c-7e-005-7.45304-2.61725-13.45303-7.84375-18s-12.1563-6.81239-20.78125-6.8125zm-10.25,89v17.875h14.25v-17.875h-14.25z" fill="#333" stroke="#fff" transform="matrix(1,0,0,.9,-114.9347,-118.91908)"/>
</svg>
